HIERARCHY
ROOT Hips
{
	OFFSET 0.00000 0.00000 0.00000
	CHANNELS 6 Xposition Yposition Zposition Zrotation Yrotation Xrotation 
	JOINT LHipJoint
	{
		OFFSET 0 0 0
		CHANNELS 3 Zrotation Yrotation Xrotation
		JOINT LeftHip
		{
			OFFSET 1.62067 -1.77917 0.70989
			CHANNELS 3 Zrotation Yrotation Xrotation
			JOINT LeftKnee
			{
				OFFSET 2.34532 -6.44371 0.00000
				CHANNELS 3 Zrotation Yrotation Xrotation
				JOINT LeftAnkle
				{
					OFFSET 2.74224 -7.53425 0.00000
					CHANNELS 3 Zrotation Yrotation Xrotation
					JOINT LeftToe
					{
						OFFSET 0.17032 -0.46794 2.08086
						CHANNELS 3 Zrotation Yrotation Xrotation
						End Site
						{
							OFFSET 0.00000 -0.00000 1.07476
						}
					}
				}
			}
		}
	}
	JOINT RHipJoint
	{
		OFFSET 0 0 0
		CHANNELS 3 Zrotation Yrotation Xrotation
		JOINT RightHip
		{
			OFFSET -1.55811 -1.77917 0.70989
			CHANNELS 3 Zrotation Yrotation Xrotation
			JOINT RightKnee
			{
				OFFSET -2.33243 -6.40830 0.00000
				CHANNELS 3 Zrotation Yrotation Xrotation
				JOINT RightAnkle
				{
					OFFSET -2.78798 -7.65993 0.00000
					CHANNELS 3 Zrotation Yrotation Xrotation
					JOINT RightToe
					{
						OFFSET -0.22707 -0.62388 2.04059
						CHANNELS 3 Zrotation Yrotation Xrotation
						End Site
						{
							OFFSET -0.00000 -0.00000 1.07030
						}
					}
				}
			}
		}
	}
	JOINT lowerback
	{
		OFFSET 0 0 0
		CHANNELS 3 Zrotation Yrotation Xrotation
		JOINT Chest
		{
			OFFSET 0.02203 1.91565 0.07161
			CHANNELS 3 Zrotation Yrotation Xrotation
			JOINT Chest2
			{
				OFFSET 0.01740 1.90525 0.11636
				CHANNELS 3 Zrotation Yrotation Xrotation
				JOINT lowerneck
				{
					OFFSET 0 0 0
					CHANNELS 3 Zrotation Yrotation Xrotation
					JOINT Neck
					{
						OFFSET -0.10841 1.83566 0.05067
						CHANNELS 3 Zrotation Yrotation Xrotation
						JOINT Head
						{
							OFFSET 0.06601 1.74760 -0.50505
							CHANNELS 3 Zrotation Yrotation Xrotation
							End Site
							{
								OFFSET 0.03102 1.85215 -0.17697
							}
						}
					}
				}
				JOINT LeftCollar
				{
					OFFSET 0 0 0
					CHANNELS 3 Zrotation Yrotation Xrotation
					JOINT LeftShoulder
					{
						OFFSET 2.87059 1.35470 0.16111
CHANNELS 3 Zrotation Xrotation Yrotation
						JOINT LeftElbow
						{
OFFSET 0 -5.435920 0.000000
CHANNELS 3 Zrotation Xrotation Yrotation
							JOINT LeftWrist
							{
OFFSET 0 -3.254600 0.000000
CHANNELS 3 Zrotation Xrotation Yrotation
								JOINT lhand
								{
									OFFSET 0 0 0
CHANNELS 3 Zrotation Xrotation Yrotation
									JOINT LFingers
									{
OFFSET 0 -0.498240 0.000000
CHANNELS 3 Zrotation Xrotation Yrotation
										End Site
										{
OFFSET 0 -0.401700 0.000000
										}
									}
								}
								JOINT LThumb
								{
OFFSET 0 0.000000 0.000000
CHANNELS 3 Zrotation Xrotation Yrotation
									End Site
									{
OFFSET 0 -0.407830 0.407830
									}
								}
							}
						}
					}
				}
				JOINT RightCollar
				{
					OFFSET 0 0 0
					CHANNELS 3 Zrotation Yrotation Xrotation
					JOINT RightShoulder
					{
						OFFSET -2.86643 1.23488 0.45957
CHANNELS 3 Zrotation Xrotation Yrotation
						JOINT RightElbow
						{
OFFSET 0 -5.338300 0.000000
CHANNELS 3 Zrotation Xrotation Yrotation
							JOINT RightWrist
							{
OFFSET 0 -3.231480 0.000000
CHANNELS 3 Zrotation Xrotation Yrotation
								JOINT rhand
								{
									OFFSET 0 0 0
CHANNELS 3 Zrotation Xrotation Yrotation
									JOINT RFingers
									{
OFFSET 0 -0.463640 0.000000
CHANNELS 3 Zrotation Xrotation Yrotation
										End Site
										{
OFFSET 0 -0.373800 0.000000
										}
									}
								}
								JOINT RThumb
								{
OFFSET 0 0.000000 0.000000
CHANNELS 3 Zrotation Xrotation Yrotation
									End Site
									{
OFFSET 0 -0.379510 0.379510
									}
								}
							}
						}
					}
				}
			}
		}
	}
}
MOTION
Frames: 5
Frame Time: 0.008333333333333333
0.583213 15.785566 3.802932 12.364925 -45.501492 7.861431 0.000000 0.000000 0.000000 -25.129648 -35.942721 -40.926543 8.558884 16.515357 54.551795 1.358347 -9.026391 -20.892625 0.718540 5.416974 15.101653 0.000000 0.000000 0.000000 0.331317 13.713913 -57.655703 -17.717175 -19.874608 83.312022 0.466533 -14.980752 -15.115690 -2.480237 9.801848 -28.337400 7.803077 7.122025 1.495455 -3.425403 9.527944 5.190131 -7.409626 5.239134 6.541433 -9.388294 -3.766161 -4.569593 3.081328 -6.800710 53.140036 2.307676 -4.310591 25.140942 0.000000 0.000000 0.000000 15.471238 -21.546088 -97.688287 105.639700 -59.055312 73.501414 18.048009 -48.534210 25.484904 0.000000 0.000000 0.000000 -7.125000 0.000000 0.000000 -7.044173 3.527506 -6.648695 0.000000 0.000000 0.000000 -6.383019 -3.865770 81.042138 -45.904842 -51.204186 -22.941888 -32.206465 14.283729 29.628667 0.000000 0.000000 0.000000 7.125000 0.000000 0.000000 -1.604311 63.880367 0.734008
0.581906 15.786494 3.792130 12.349636 -45.434659 7.985756 0.000000 0.000000 0.000000 -25.058925 -35.960850 -41.068612 8.546595 16.506965 54.508534 1.358218 -8.837205 -20.880263 0.638697 5.112864 14.230886 0.000000 0.000000 0.000000 0.355766 13.679651 -57.825206 -17.719324 -19.874803 83.318471 0.502263 -15.189109 -14.933423 -2.517972 9.870484 -28.558362 7.877121 7.389505 1.697137 -3.547839 9.904197 5.238506 -7.563931 5.440675 6.595336 -9.140814 -4.069506 -4.386963 3.210841 -7.412753 53.073410 2.218230 -4.456986 25.072867 0.000000 0.000000 0.000000 15.569269 -22.030871 -98.491189 106.314782 -58.969932 74.080142 19.369004 -49.995591 25.399740 0.000000 0.000000 0.000000 -7.125000 0.000000 0.000000 -6.233481 3.399309 -5.888397 0.000000 0.000000 0.000000 -6.066994 -3.935041 80.865227 -47.053100 -51.735534 -23.840192 -32.274942 13.978674 28.603986 0.000000 0.000000 0.000000 7.125000 0.000000 0.000000 -2.079214 62.788310 0.898493
0.575422 15.792071 3.797957 12.332103 -45.533984 8.088577 0.000000 0.000000 0.000000 -24.934445 -36.048357 -41.216827 8.601566 16.544341 54.701579 1.393887 -8.782189 -21.147726 0.619360 5.036624 14.013124 0.000000 0.000000 0.000000 0.319846 13.744940 -57.823404 -17.725308 -19.875501 83.335923 0.461488 -14.928430 -15.092429 -2.513632 9.862757 -28.533285 8.185817 7.236011 1.564053 -3.635352 9.690960 5.278645 -7.827168 5.362207 6.747746 -9.832917 -3.860569 -4.302765 3.795837 -7.200488 53.132563 2.757695 -4.491866 25.251905 0.000000 0.000000 0.000000 15.870236 -21.841260 -98.020616 106.680834 -58.922067 74.393715 20.201216 -50.703958 26.169417 0.000000 0.000000 0.000000 -7.125000 0.000000 0.000000 -5.806274 2.466298 -5.580094 0.000000 0.000000 0.000000 -6.011519 -3.805033 82.173463 -48.275141 -52.275712 -24.803200 -32.447127 13.797431 28.576697 0.000000 0.000000 0.000000 7.125000 0.000000 0.000000 -2.308532 62.805788 0.998644
0.589785 15.756875 3.735950 11.575310 -44.930815 8.889463 0.000000 0.000000 0.000000 -23.650348 -36.361665 -42.251275 8.673939 16.593291 54.955632 1.315002 -9.472490 -20.597292 0.671023 5.238148 14.589180 0.000000 0.000000 0.000000 0.953438 13.884955 -58.560936 -17.807481 -19.884366 83.577562 0.540641 -15.556205 -15.063953 -2.453546 9.752835 -28.180037 8.380823 7.411826 2.478717 -3.513146 9.979137 5.159863 -7.907490 5.487326 6.173017 -9.250632 -4.328027 -4.253762 3.742121 -8.048304 52.957827 2.435209 -4.655286 25.092646 0.000000 0.000000 0.000000 15.666445 -22.264760 -99.049688 106.772962 -58.909785 74.472653 20.045102 -49.933869 26.085861 0.000000 0.000000 0.000000 -7.125000 0.000000 0.000000 -5.891715 2.579474 -5.650968 0.000000 0.000000 0.000000 -5.717742 -3.710972 81.440639 -49.985238 -52.989387 -26.162372 -31.470887 14.156655 30.285411 0.000000 0.000000 0.000000 7.125000 0.000000 0.000000 -0.363980 64.379896 0.170232
0.581285 15.767569 3.762206 12.305121 -45.077065 8.375866 0.000000 0.000000 0.000000 -24.483449 -36.433415 -41.827651 8.641329 16.571221 54.841105 1.329261 -9.386831 -20.698508 0.797873 5.701123 15.919675 0.000000 0.000000 0.000000 0.301432 13.579963 -58.411854 -17.810595 -19.884689 83.586890 0.472662 -15.081598 -15.223614 -2.428403 9.706542 -28.031680 8.073615 7.206107 2.198923 -3.633097 9.687008 5.366141 -7.843910 5.348167 6.458930 -9.413268 -4.071327 -4.426634 3.480581 -7.444275 53.016633 2.429892 -4.495025 25.108276 0.000000 0.000000 0.000000 15.674534 -21.939232 -98.504455 107.233939 -58.847475 74.867254 18.394682 -49.066081 25.073214 0.000000 0.000000 0.000000 -7.125000 0.000000 0.000000 -6.797612 3.892290 -6.366092 0.000000 0.000000 0.000000 -5.770032 -3.708228 82.673338 -52.001616 -53.771451 -27.780865 -30.652540 13.544081 31.742723 0.000000 0.000000 0.000000 7.125000 0.000000 0.000000 1.444969 65.694982 -0.722251
